# xmcd
#
# Track frame offsets:
#	150
#	20030
#	37182
#	51361
#	65433
#	82905
#	100065
#	126054
#	140316
#	162523
#	181690
#	199017
#	222217
#	240106
#	259196
#	286684
#
# Disc length: 4053 seconds
#
# Revision: 0
# Processed by: cddbd v1.5.2PL0 Copyright (c) Steve Scherf et al.
# Submitted via: FairStars CD Ripper 1.90
#
DISCID=d90fd310
DTITLE=The Mavericks - Trampoline
DYEAR=1998
DGENRE=Country
TTITLE0=Dance the Night Away
TTITLE1=Tell Me Why
TTITLE2=I Should Know
TTITLE3=Someone Should Tell Her
TTITLE4=To Be with You
TTITLE5=I've Got This Feeling
TTITLE6=Fool # 1
TTITLE7=I Don't Even Know Your Name
TTITLE8=I Hope You Want Me Too
TTITLE9=Melbourne Mambo
TTITLE10=Dolores
TTITLE11=Save a Prayer
TTITLE12=Dream River
TTITLE13=All I Got
TTITLE14=La Mucara
TTITLE15=Oh What A Crying Shame
EXTD=
EXTT0=
EXTT1=
EXTT2=
EXTT3=
EXTT4=
EXTT5=
EXTT6=
EXTT7=
EXTT8=
EXTT9=
EXTT10=
EXTT11=
EXTT12=
EXTT13=
EXTT14=
EXTT15=
PLAYORDER=
